<?xml version="1.0" encoding="UTF-8" standalone="no"?>
<!-- Created with Inkscape (http://www.inkscape.org/) -->

<svg
   xmlns:dc="http://purl.org/dc/elements/1.1/"
   xmlns:cc="http://creativecommons.org/ns#"
   xmlns:rdf="http://www.w3.org/1999/02/22-rdf-syntax-ns#"
   xmlns:svg="http://www.w3.org/2000/svg"
   xmlns="http://www.w3.org/2000/svg"
   xmlns:sodipodi="http://sodipodi.sourceforge.net/DTD/sodipodi-0.dtd"
   xmlns:inkscape="http://www.inkscape.org/namespaces/inkscape"
   version="1.1"
   id="svg2"
   xml:space="preserve"
   width="384"
   height="192"
   viewBox="0 0 384 192"
   sodipodi:docname="template-box.svg"
   inkscape:version="0.92.4 (5da689c313, 2019-01-14)"><metadata
     id="metadata8"><rdf:RDF><cc:Work
         rdf:about=""><dc:format>image/svg+xml</dc:format><dc:type
           rdf:resource="http://purl.org/dc/dcmitype/StillImage" /><dc:title></dc:title></cc:Work></rdf:RDF></metadata><defs
     id="defs6"><clipPath
       clipPathUnits="userSpaceOnUse"
       id="clipPath18"><path
         d="M 25.602,756 C 17.648,756 11.2,749.551 11.2,741.602 v 0 -115.204 C 11.2,618.449 17.648,612 25.602,612 v 0 h 259.199 c 7.953,0 14.399,6.449 14.399,14.398 v 0 115.204 c 0,7.949 -6.446,14.398 -14.399,14.398 v 0 z"
         id="path16"
         inkscape:connector-curvature="0" /></clipPath><clipPath
       clipPathUnits="userSpaceOnUse"
       id="clipPath30"><path
         d="m 327.148,756 c -7.949,0 -14.398,-6.449 -14.398,-14.398 v 0 -115.204 c 0,-7.949 6.449,-14.398 14.398,-14.398 v 0 h 259.204 c 7.949,0 14.398,6.449 14.398,14.398 v 0 115.204 c 0,7.949 -6.449,14.398 -14.398,14.398 v 0 z"
         id="path28"
         inkscape:connector-curvature="0" /></clipPath><clipPath
       clipPathUnits="userSpaceOnUse"
       id="clipPath42"><path
         d="M 25.602,612 C 17.648,612 11.2,605.551 11.2,597.602 v 0 -115.204 C 11.2,474.449 17.648,468 25.602,468 v 0 h 259.199 c 7.953,0 14.399,6.449 14.399,14.398 v 0 115.204 c 0,7.949 -6.446,14.398 -14.399,14.398 v 0 z"
         id="path40"
         inkscape:connector-curvature="0" /></clipPath><clipPath
       clipPathUnits="userSpaceOnUse"
       id="clipPath54"><path
         d="m 327.148,612 c -7.949,0 -14.398,-6.449 -14.398,-14.398 v 0 -115.204 c 0,-7.949 6.449,-14.398 14.398,-14.398 v 0 h 259.204 c 7.949,0 14.398,6.449 14.398,14.398 v 0 115.204 c 0,7.949 -6.449,14.398 -14.398,14.398 v 0 z"
         id="path52"
         inkscape:connector-curvature="0" /></clipPath><clipPath
       clipPathUnits="userSpaceOnUse"
       id="clipPath66"><path
         d="M 25.602,468 C 17.648,468 11.2,461.551 11.2,453.602 v 0 -115.204 C 11.2,330.449 17.648,324 25.602,324 v 0 h 259.199 c 7.953,0 14.399,6.449 14.399,14.398 v 0 115.204 c 0,7.949 -6.446,14.398 -14.399,14.398 v 0 z"
         id="path64"
         inkscape:connector-curvature="0" /></clipPath><clipPath
       clipPathUnits="userSpaceOnUse"
       id="clipPath78"><path
         d="m 327.148,468 c -7.949,0 -14.398,-6.449 -14.398,-14.398 v 0 -115.204 c 0,-7.949 6.449,-14.398 14.398,-14.398 v 0 h 259.204 c 7.949,0 14.398,6.449 14.398,14.398 v 0 115.204 c 0,7.949 -6.449,14.398 -14.398,14.398 v 0 z"
         id="path76"
         inkscape:connector-curvature="0" /></clipPath><clipPath
       clipPathUnits="userSpaceOnUse"
       id="clipPath90"><path
         d="M 25.602,324 C 17.648,324 11.2,317.551 11.2,309.602 v 0 -115.204 C 11.2,186.449 17.648,180 25.602,180 v 0 h 259.199 c 7.953,0 14.399,6.449 14.399,14.398 v 0 115.204 c 0,7.949 -6.446,14.398 -14.399,14.398 v 0 z"
         id="path88"
         inkscape:connector-curvature="0" /></clipPath><clipPath
       clipPathUnits="userSpaceOnUse"
       id="clipPath102"><path
         d="m 327.148,324 c -7.949,0 -14.398,-6.449 -14.398,-14.398 v 0 -115.204 c 0,-7.949 6.449,-14.398 14.398,-14.398 v 0 h 259.204 c 7.949,0 14.398,6.449 14.398,14.398 v 0 115.204 c 0,7.949 -6.449,14.398 -14.398,14.398 v 0 z"
         id="path100"
         inkscape:connector-curvature="0" /></clipPath><clipPath
       clipPathUnits="userSpaceOnUse"
       id="clipPath114"><path
         d="M 25.602,180 C 17.648,180 11.2,173.551 11.2,165.602 v 0 V 50.398 C 11.2,42.449 17.648,36 25.602,36 v 0 h 259.199 c 7.953,0 14.399,6.449 14.399,14.398 v 0 115.204 c 0,7.949 -6.446,14.398 -14.399,14.398 v 0 z"
         id="path112"
         inkscape:connector-curvature="0" /></clipPath><clipPath
       clipPathUnits="userSpaceOnUse"
       id="clipPath126"><path
         d="m 327.148,180 c -7.949,0 -14.398,-6.449 -14.398,-14.398 v 0 V 50.398 C 312.75,42.449 319.199,36 327.148,36 v 0 h 259.204 c 7.949,0 14.398,6.449 14.398,14.398 v 0 115.204 c 0,7.949 -6.449,14.398 -14.398,14.398 v 0 z"
         id="path124"
         inkscape:connector-curvature="0" /></clipPath><clipPath
       clipPathUnits="userSpaceOnUse"
       id="clipPath138"><path
         d="M 324.186,46.602 H 447.184 V 169.601 H 324.186 Z"
         id="path136"
         inkscape:connector-curvature="0" /></clipPath><clipPath
       clipPathUnits="userSpaceOnUse"
       id="clipPath152"><path
         d="m 324.184,623.704 h 123 v 122.999 h -123 z"
         id="path150"
         inkscape:connector-curvature="0" /></clipPath><clipPath
       clipPathUnits="userSpaceOnUse"
       id="clipPath166"><path
         d="M 19.185,333.817 H 142.183 V 456.815 H 19.185 Z"
         id="path164"
         inkscape:connector-curvature="0" /></clipPath><clipPath
       clipPathUnits="userSpaceOnUse"
       id="clipPath180"><path
         d="M 19.184,478.5 H 142.183 V 601.498 H 19.184 Z"
         id="path178"
         inkscape:connector-curvature="0" /></clipPath><clipPath
       clipPathUnits="userSpaceOnUse"
       id="clipPath194"><path
         d="M 19.184,46.5 H 142.182 V 169.499 H 19.184 Z"
         id="path192"
         inkscape:connector-curvature="0" /></clipPath><clipPath
       clipPathUnits="userSpaceOnUse"
       id="clipPath208"><path
         d="M 324.184,478.5 H 447.183 V 601.499 H 324.184 Z"
         id="path206"
         inkscape:connector-curvature="0" /></clipPath><clipPath
       clipPathUnits="userSpaceOnUse"
       id="clipPath222"><path
         d="M 19.185,195.797 H 142.183 V 318.795 H 19.185 Z"
         id="path220"
         inkscape:connector-curvature="0" /></clipPath><clipPath
       clipPathUnits="userSpaceOnUse"
       id="clipPath236"><path
         d="M 19.184,623.703 H 142.182 V 746.701 H 19.184 Z"
         id="path234"
         inkscape:connector-curvature="0" /></clipPath><clipPath
       clipPathUnits="userSpaceOnUse"
       id="clipPath250"><path
         d="M 324.184,190.5 H 447.183 V 313.498 H 324.184 Z"
         id="path248"
         inkscape:connector-curvature="0" /></clipPath><clipPath
       clipPathUnits="userSpaceOnUse"
       id="clipPath272"><path
         d="M 324.184,334.5 H 447.183 V 457.499 H 324.184 Z"
         id="path270"
         inkscape:connector-curvature="0" /></clipPath></defs><sodipodi:namedview
     pagecolor="#ffffff"
     bordercolor="#666666"
     borderopacity="1"
     objecttolerance="10"
     gridtolerance="10"
     guidetolerance="10"
     inkscape:pageopacity="0"
     inkscape:pageshadow="2"
     inkscape:window-width="1366"
     inkscape:window-height="708"
     id="namedview4"
     showgrid="false"
     fit-margin-top="0"
     fit-margin-left="0"
     fit-margin-right="0"
     fit-margin-bottom="0"
     inkscape:zoom="2.2"
     inkscape:cx="71.940358"
     inkscape:cy="106.18182"
     inkscape:window-x="0"
     inkscape:window-y="0"
     inkscape:window-maximized="1"
     inkscape:current-layer="g10" /><g
     id="g10"
     inkscape:groupmode="layer"
     inkscape:label="template"
     transform="matrix(1.3333333,0,0,-1.3333333,-14.933333,431.99999)"><g
       id="g84"><g
         id="g86"
         clip-path="url(#clipPath90)"><g
           id="g92"
           transform="translate(25.6021,180)"><path
             d="M 0,0 C -7.954,0 -14.403,6.445 -14.403,14.398 V 129.602 C -14.403,137.555 -7.954,144 0,144 h 259.199 c 7.953,0 14.398,-6.445 14.398,-14.398 V 14.398 C 273.597,6.445 267.152,0 259.199,0 Z"
             style="fill:none;stroke:#060706;stroke-width:1;stroke-linecap:butt;stroke-linejoin:miter;stroke-miterlimit:10;stroke-dasharray:none;stroke-opacity:1"
             id="path94"
             inkscape:connector-curvature="0" /></g></g></g><g
       id="g96" /></g></svg>