<svg id="Layer_1" data-name="Layer 1" xmlns="http://www.w3.org/2000/svg" viewBox="0 0 1920.5 1416.41"><defs><style>.cls-1,.cls-13,.cls-20,.cls-7{fill:#fff;}.cls-2{font-size:70px;fill:#33a3ff;font-family:Futura-Medium, Futura;}.cls-15,.cls-2,.cls-21,.cls-24,.cls-28,.cls-7{font-weight:500;}.cls-3{fill:#afaeae;}.cls-4{fill:#64d3ff;}.cls-5{fill:#aaa;}.cls-6{fill:#41bcf2;}.cls-21,.cls-7{font-size:34.96px;}.cls-15,.cls-21,.cls-24,.cls-28,.cls-7{font-family:Futura-CondensedMedium, Futura;}.cls-8{letter-spacing:0em;}.cls-9{letter-spacing:-0.03em;}.cls-10{letter-spacing:0.01em;}.cls-11{letter-spacing:-0.01em;}.cls-12{letter-spacing:-0.02em;}.cls-13,.cls-14,.cls-20,.cls-22{stroke:#000;}.cls-13,.cls-14,.cls-20,.cls-22,.cls-23{stroke-miterlimit:10;}.cls-14,.cls-22,.cls-23{fill:none;}.cls-14{stroke-width:4px;}.cls-15{font-size:44px;}.cls-16{letter-spacing:-0.03em;}.cls-17{letter-spacing:0.01em;}.cls-18{letter-spacing:-0.01em;}.cls-19{letter-spacing:-0.02em;}.cls-20,.cls-22{stroke-width:5px;}.cls-23{stroke:#ccc;stroke-width:2px;}.cls-24,.cls-28{font-size:26px;}.cls-25{letter-spacing:-0.01em;}.cls-26{letter-spacing:0em;}.cls-27{letter-spacing:0em;}.cls-28{fill:#b3b3b3;}.cls-29{letter-spacing:0em;}.cls-30{fill:#fbb03b;}.cls-31{fill:red;}.cls-32{letter-spacing:0.02em;}.cls-33{fill:lime;}</style></defs><title>ws02</title><rect class="cls-1" x="1" y="3.91" width="1919" height="76"/><path d="M1919,1V76H1V1H1919m1-1H0V77H1920V0Z" transform="translate(0.5 3.41)"/><text class="cls-2" transform="translate(0 61.64)">C<tspan class="cls-3" x="49.05" y="0">lean</tspan><tspan class="cls-4" x="185.56" y="0">C</tspan><tspan class="cls-5" x="234.61" y="0">onnect</tspan></text><rect class="cls-5" x="454.5" y="38.41" width="18.5" height="18"/><rect class="cls-5" x="491.5" y="38.41" width="18.5" height="18"/><rect class="cls-6" x="473" y="20.41" width="18.5" height="18"/><rect class="cls-6" x="510" y="20.41" width="18.5" height="18"/><rect class="cls-6" x="1658" y="6.41" width="256.5" height="70.5" rx="17.5"/><text class="cls-7" transform="translate(1708.85 52.48) scale(1.02 1)"><tspan class="cls-8">A</tspan><tspan x="14.36" y="0">ccount panel</tspan></text><rect class="cls-6" x="1136" y="6.41" width="256.5" height="70.5" rx="17.5"/><text class="cls-7" transform="translate(1187.85 53.48) scale(1.02 1)">Issue <tspan class="cls-9" x="62.49" y="0">T</tspan><tspan class="cls-10" x="72.98" y="0">r</tspan><tspan x="82.52" y="0">a</tspan><tspan class="cls-11" x="96.31" y="0">c</tspan><tspan class="cls-12" x="106.09" y="0">k</tspan><tspan x="119.24" y="0">er</tspan></text><rect class="cls-13" x="469" y="135.91" width="986" height="1280"/><line class="cls-14" x1="468.99" y1="133.41" x2="959.01" y2="133.41"/><text class="cls-15" transform="translate(469.47 126.05)">Issue <tspan class="cls-16" x="78.65" y="0">T</tspan><tspan class="cls-17" x="91.85" y="0">r</tspan><tspan x="103.86" y="0">a</tspan><tspan class="cls-18" x="121.21" y="0">c</tspan><tspan class="cls-19" x="133.53" y="0">k</tspan><tspan x="150.07" y="0">er</tspan></text><rect class="cls-6" x="1396" y="6.41" width="256.5" height="70.5" rx="17.5"/><text class="cls-7" transform="translate(1495.85 52.48) scale(1.02 1)"><tspan class="cls-9">T</tspan><tspan x="10.48" y="0">ags</tspan></text><rect class="cls-20" x="491" y="157.41" width="468.5" height="533" rx="17.5"/><text class="cls-21" transform="translate(542.85 204.48) scale(1.02 1)">Bath<tspan class="cls-8" x="50.1" y="0">r</tspan><tspan x="59.54" y="0">oom A</tspan></text><line class="cls-22" x1="490.5" y1="215.41" x2="959.5" y2="215.41"/><line class="cls-23" x1="491" y1="264.91" x2="959" y2="266.91"/><text class="cls-24" transform="translate(509.65 248.18)"><tspan class="cls-25">R</tspan><tspan x="10.66" y="0">an out of soap in dispenser 3</tspan></text><line class="cls-23" x1="491.5" y1="530.41" x2="959.5" y2="532.41"/><text class="cls-24" transform="translate(498.65 516.18)"><tspan class="cls-26">F</tspan><tspan x="9.12" y="0">aucet is b</tspan><tspan class="cls-27" x="86.56" y="0">r</tspan><tspan x="93.58" y="0">o</tspan><tspan class="cls-19" x="103.59" y="0">k</tspan><tspan x="113.37" y="0">en</tspan></text><rect x="509.5" y="275.41" width="420" height="205"/><text class="cls-28" transform="translate(564.06 391.98)">Image of b<tspan class="cls-27" x="89.07" y="0">r</tspan><tspan x="96.09" y="0">o</tspan><tspan class="cls-19" x="106.11" y="0">k</tspan><tspan x="115.88" y="0">en </tspan><tspan class="cls-29" x="141.38" y="0">f</tspan><tspan x="147.88" y="0">aucet goes he</tspan><tspan class="cls-27" x="259.87" y="0">r</tspan><tspan x="266.89" y="0">e</tspan></text><circle class="cls-30" cx="920.5" cy="191.41" r="13"/><circle class="cls-30" cx="920.5" cy="240.41" r="13"/><circle class="cls-31" cx="920.5" cy="508.41" r="13"/><line class="cls-23" x1="491.5" y1="583.41" x2="959.5" y2="585.41"/><text class="cls-24" transform="translate(498.65 565.18)">Le<tspan class="cls-32" x="18.19" y="0">f</tspan><tspan x="25.19" y="0">tmo</tspan><tspan class="cls-29" x="56.86" y="0">s</tspan><tspan x="64.63" y="0">t </tspan><tspan class="cls-29" x="75.79" y="0">f</tspan><tspan x="82.29" y="0">aucet is leaky</tspan></text><circle class="cls-33" cx="920.5" cy="558.41" r="13"/><rect class="cls-20" x="970" y="157.41" width="468.5" height="533" rx="17.5"/><text class="cls-21" transform="translate(1021.85 204.48) scale(1.02 1)">Bath<tspan class="cls-8" x="50.1" y="0">r</tspan><tspan x="59.54" y="0">oom A</tspan></text><line class="cls-22" x1="969.5" y1="215.41" x2="1438.5" y2="215.41"/><line class="cls-23" x1="970" y1="264.91" x2="1438" y2="266.91"/><text class="cls-24" transform="translate(988.65 248.18)"><tspan class="cls-25">R</tspan><tspan x="10.66" y="0">an out of soap in dispenser 3</tspan></text><line class="cls-23" x1="970.5" y1="530.41" x2="1438.5" y2="532.41"/><text class="cls-24" transform="translate(977.65 516.18)"><tspan class="cls-26">F</tspan><tspan x="9.12" y="0">aucet is b</tspan><tspan class="cls-27" x="86.56" y="0">r</tspan><tspan x="93.58" y="0">o</tspan><tspan class="cls-19" x="103.59" y="0">k</tspan><tspan x="113.37" y="0">en</tspan></text><rect x="988.5" y="275.41" width="420" height="205"/><text class="cls-28" transform="translate(1043.06 391.98)">Image of b<tspan class="cls-27" x="89.07" y="0">r</tspan><tspan x="96.09" y="0">o</tspan><tspan class="cls-19" x="106.11" y="0">k</tspan><tspan x="115.88" y="0">en </tspan><tspan class="cls-29" x="141.38" y="0">f</tspan><tspan x="147.88" y="0">aucet goes he</tspan><tspan class="cls-27" x="259.87" y="0">r</tspan><tspan x="266.89" y="0">e</tspan></text><circle class="cls-30" cx="1399.5" cy="191.41" r="13"/><circle class="cls-30" cx="1399.5" cy="240.41" r="13"/><circle class="cls-31" cx="1399.5" cy="508.41" r="13"/><line class="cls-23" x1="970.5" y1="583.41" x2="1438.5" y2="585.41"/><text class="cls-24" transform="translate(977.65 565.18)">Le<tspan class="cls-32" x="18.19" y="0">f</tspan><tspan x="25.19" y="0">tmo</tspan><tspan class="cls-29" x="56.86" y="0">s</tspan><tspan x="64.63" y="0">t </tspan><tspan class="cls-29" x="75.79" y="0">f</tspan><tspan x="82.29" y="0">aucet is leaky</tspan></text><circle class="cls-33" cx="1399.5" cy="558.41" r="13"/><rect class="cls-20" x="492" y="704.41" width="468.5" height="533" rx="17.5"/><text class="cls-21" transform="translate(543.85 751.48) scale(1.02 1)">Bath<tspan class="cls-8" x="50.1" y="0">r</tspan><tspan x="59.54" y="0">oom A</tspan></text><line class="cls-22" x1="491.5" y1="762.41" x2="960.5" y2="762.41"/><line class="cls-23" x1="492" y1="811.91" x2="960" y2="813.91"/><text class="cls-24" transform="translate(510.65 795.18)"><tspan class="cls-25">R</tspan><tspan x="10.66" y="0">an out of soap in dispenser 3</tspan></text><line class="cls-23" x1="492.5" y1="1077.41" x2="960.5" y2="1079.41"/><text class="cls-24" transform="translate(499.65 1063.18)"><tspan class="cls-26">F</tspan><tspan x="9.12" y="0">aucet is b</tspan><tspan class="cls-27" x="86.56" y="0">r</tspan><tspan x="93.58" y="0">o</tspan><tspan class="cls-19" x="103.59" y="0">k</tspan><tspan x="113.37" y="0">en</tspan></text><rect x="510.5" y="822.41" width="420" height="205"/><text class="cls-28" transform="translate(565.06 938.98)">Image of b<tspan class="cls-27" x="89.07" y="0">r</tspan><tspan x="96.09" y="0">o</tspan><tspan class="cls-19" x="106.11" y="0">k</tspan><tspan x="115.88" y="0">en </tspan><tspan class="cls-29" x="141.38" y="0">f</tspan><tspan x="147.88" y="0">aucet goes he</tspan><tspan class="cls-27" x="259.87" y="0">r</tspan><tspan x="266.89" y="0">e</tspan></text><circle class="cls-30" cx="921.5" cy="738.41" r="13"/><circle class="cls-30" cx="921.5" cy="787.41" r="13"/><circle class="cls-31" cx="921.5" cy="1055.41" r="13"/><line class="cls-23" x1="492.5" y1="1130.41" x2="960.5" y2="1132.41"/><text class="cls-24" transform="translate(499.65 1112.18)">Le<tspan class="cls-32" x="18.19" y="0">f</tspan><tspan x="25.19" y="0">tmo</tspan><tspan class="cls-29" x="56.86" y="0">s</tspan><tspan x="64.63" y="0">t </tspan><tspan class="cls-29" x="75.79" y="0">f</tspan><tspan x="82.29" y="0">aucet is leaky</tspan></text><circle class="cls-33" cx="921.5" cy="1105.41" r="13"/><rect class="cls-20" x="971" y="704.41" width="468.5" height="533" rx="17.5"/><text class="cls-21" transform="translate(1022.85 751.48) scale(1.02 1)">Bath<tspan class="cls-8" x="50.1" y="0">r</tspan><tspan x="59.54" y="0">oom A</tspan></text><line class="cls-22" x1="970.5" y1="762.41" x2="1439.5" y2="762.41"/><line class="cls-23" x1="971" y1="811.91" x2="1439" y2="813.91"/><text class="cls-24" transform="translate(989.65 795.18)"><tspan class="cls-25">R</tspan><tspan x="10.66" y="0">an out of soap in dispenser 3</tspan></text><line class="cls-23" x1="971.5" y1="1077.41" x2="1439.5" y2="1079.41"/><text class="cls-24" transform="translate(978.65 1063.18)"><tspan class="cls-26">F</tspan><tspan x="9.12" y="0">aucet is b</tspan><tspan class="cls-27" x="86.56" y="0">r</tspan><tspan x="93.58" y="0">o</tspan><tspan class="cls-19" x="103.59" y="0">k</tspan><tspan x="113.37" y="0">en</tspan></text><rect x="989.5" y="822.41" width="420" height="205"/><text class="cls-28" transform="translate(1044.06 938.98)">Image of b<tspan class="cls-27" x="89.07" y="0">r</tspan><tspan x="96.09" y="0">o</tspan><tspan class="cls-19" x="106.11" y="0">k</tspan><tspan x="115.88" y="0">en </tspan><tspan class="cls-29" x="141.38" y="0">f</tspan><tspan x="147.88" y="0">aucet goes he</tspan><tspan class="cls-27" x="259.87" y="0">r</tspan><tspan x="266.89" y="0">e</tspan></text><circle class="cls-30" cx="1400.5" cy="738.41" r="13"/><circle class="cls-30" cx="1400.5" cy="787.41" r="13"/><circle class="cls-31" cx="1400.5" cy="1055.41" r="13"/><line class="cls-23" x1="971.5" y1="1130.41" x2="1439.5" y2="1132.41"/><text class="cls-24" transform="translate(978.65 1112.18)">Le<tspan class="cls-32" x="18.19" y="0">f</tspan><tspan x="25.19" y="0">tmo</tspan><tspan class="cls-29" x="56.86" y="0">s</tspan><tspan x="64.63" y="0">t </tspan><tspan class="cls-29" x="75.79" y="0">f</tspan><tspan x="82.29" y="0">aucet is leaky</tspan></text><circle class="cls-33" cx="1400.5" cy="1105.41" r="13"/></svg>