<svg id="Layer_1" data-name="Layer 1" xmlns="http://www.w3.org/2000/svg" viewBox="0 0 1920.5 1416.41"><defs><style>.cls-1,.cls-13,.cls-17,.cls-7{fill:#fff;}.cls-2{font-size:70px;fill:#33a3ff;font-family:Futura-Medium, Futura;}.cls-15,.cls-18,.cls-2,.cls-21,.cls-26,.cls-7{font-weight:500;}.cls-3{fill:#afaeae;}.cls-4{fill:#64d3ff;}.cls-5{fill:#aaa;}.cls-6{fill:#41bcf2;}.cls-18,.cls-7{font-size:34.96px;}.cls-15,.cls-18,.cls-21,.cls-26,.cls-7{font-family:Futura-CondensedMedium, Futura;}.cls-8{letter-spacing:0em;}.cls-9{letter-spacing:-0.03em;}.cls-10{letter-spacing:0.01em;}.cls-11{letter-spacing:-0.01em;}.cls-12{letter-spacing:-0.02em;}.cls-13,.cls-14,.cls-17,.cls-19{stroke:#000;}.cls-13,.cls-14,.cls-17,.cls-19,.cls-20{stroke-miterlimit:10;}.cls-14,.cls-19,.cls-20{fill:none;}.cls-14{stroke-width:4px;}.cls-15{font-size:44px;}.cls-16{letter-spacing:-0.03em;}.cls-17,.cls-19{stroke-width:5px;}.cls-20{stroke:#ccc;stroke-width:2px;}.cls-21,.cls-26{font-size:26px;}.cls-21{fill:#0071bc;}.cls-22{letter-spacing:0em;}.cls-23{letter-spacing:0em;}.cls-24{letter-spacing:0em;}.cls-25{letter-spacing:0em;}.cls-26{fill:#b3b3b3;}.cls-27{letter-spacing:0em;}.cls-28{letter-spacing:0em;}</style></defs><title>ws03</title><rect class="cls-1" x="1" y="3.91" width="1919" height="76"/><path d="M1919,1V76H1V1H1919m1-1H0V77H1920V0Z" transform="translate(0.5 3.41)"/><text class="cls-2" transform="translate(0 61.64)">C<tspan class="cls-3" x="49.05" y="0">lean</tspan><tspan class="cls-4" x="185.56" y="0">C</tspan><tspan class="cls-5" x="234.61" y="0">onnect</tspan></text><rect class="cls-5" x="454.5" y="38.41" width="18.5" height="18"/><rect class="cls-5" x="491.5" y="38.41" width="18.5" height="18"/><rect class="cls-6" x="473" y="20.41" width="18.5" height="18"/><rect class="cls-6" x="510" y="20.41" width="18.5" height="18"/><rect class="cls-6" x="1658" y="6.41" width="256.5" height="70.5" rx="17.5"/><text class="cls-7" transform="translate(1708.85 52.48) scale(1.02 1)"><tspan class="cls-8">A</tspan><tspan x="14.36" y="0">ccount panel</tspan></text><rect class="cls-6" x="1136" y="6.41" width="256.5" height="70.5" rx="17.5"/><text class="cls-7" transform="translate(1187.85 53.48) scale(1.02 1)">Issue <tspan class="cls-9" x="62.49" y="0">T</tspan><tspan class="cls-10" x="72.98" y="0">r</tspan><tspan x="82.52" y="0">a</tspan><tspan class="cls-11" x="96.31" y="0">c</tspan><tspan class="cls-12" x="106.09" y="0">k</tspan><tspan x="119.24" y="0">er</tspan></text><rect class="cls-6" x="1397" y="6.41" width="256.5" height="70.5" rx="17.5"/><text class="cls-7" transform="translate(1496.85 52.48) scale(1.02 1)"><tspan class="cls-9">T</tspan><tspan x="10.48" y="0">ags</tspan></text><rect class="cls-13" x="469" y="135.91" width="986" height="1280"/><line class="cls-14" x1="468.99" y1="134.41" x2="959.01" y2="134.41"/><text class="cls-15" transform="translate(469.47 127.05)"><tspan class="cls-16">T</tspan><tspan x="13.19" y="0">ags</tspan></text><rect class="cls-17" x="480" y="161.41" width="468.5" height="533" rx="17.5"/><text class="cls-18" transform="translate(530.85 208.48) scale(1.02 1)">Bath<tspan class="cls-8" x="50.1" y="0">r</tspan><tspan x="59.54" y="0">oom A</tspan></text><line class="cls-19" x1="479.5" y1="219.41" x2="948.5" y2="219.41"/><line class="cls-20" x1="480.5" y1="585.41" x2="948.5" y2="587.41"/><text class="cls-21" transform="translate(487.65 614.18)"><tspan class="cls-22">A</tspan><tspan x="10.73" y="0">dd </tspan><tspan class="cls-23" x="36.63" y="0">t</tspan><tspan x="42.35" y="0">o p</tspan><tspan class="cls-24" x="68.01" y="0">r</tspan><tspan x="75" y="0">in</tspan><tspan class="cls-25" x="90.7" y="0">t</tspan><tspan x="96.5" y="0">able sheet</tspan></text><rect x="498.5" y="227.41" width="420" height="351"/><text class="cls-26" transform="translate(553.06 395.98)">Qr code of <tspan class="cls-25" x="89.2" y="0">t</tspan><tspan x="95" y="0">ag goes he</tspan><tspan class="cls-27" x="183.92" y="0">r</tspan><tspan x="190.94" y="0">e</tspan></text><text class="cls-21" transform="translate(487.65 642.18)">Dele<tspan class="cls-28" x="36.45" y="0">t</tspan><tspan x="42.2" y="0">e </tspan><tspan class="cls-16" x="57.17" y="0">T</tspan><tspan x="64.96" y="0">ag</tspan></text><text class="cls-21" transform="translate(487.65 670.18)">Suspend <tspan class="cls-16" x="73.91" y="0">T</tspan><tspan x="81.71" y="0">ag</tspan></text><rect class="cls-17" x="963" y="161.41" width="468.5" height="533" rx="17.5"/><text class="cls-18" transform="translate(1013.85 208.48) scale(1.02 1)">Bath<tspan class="cls-8" x="50.1" y="0">r</tspan><tspan x="59.54" y="0">oom A</tspan></text><line class="cls-19" x1="962.5" y1="219.41" x2="1431.5" y2="219.41"/><line class="cls-20" x1="963.5" y1="585.41" x2="1431.5" y2="587.41"/><text class="cls-21" transform="translate(970.65 614.18)"><tspan class="cls-22">A</tspan><tspan x="10.73" y="0">dd </tspan><tspan class="cls-23" x="36.63" y="0">t</tspan><tspan x="42.35" y="0">o p</tspan><tspan class="cls-24" x="68.01" y="0">r</tspan><tspan x="75" y="0">in</tspan><tspan class="cls-25" x="90.7" y="0">t</tspan><tspan x="96.5" y="0">able sheet</tspan></text><rect x="981.5" y="227.41" width="420" height="351"/><text class="cls-26" transform="translate(1036.06 395.98)">Qr code of <tspan class="cls-25" x="89.2" y="0">t</tspan><tspan x="95" y="0">ag goes he</tspan><tspan class="cls-27" x="183.92" y="0">r</tspan><tspan x="190.94" y="0">e</tspan></text><text class="cls-21" transform="translate(970.65 642.18)">Dele<tspan class="cls-28" x="36.45" y="0">t</tspan><tspan x="42.2" y="0">e </tspan><tspan class="cls-16" x="57.17" y="0">T</tspan><tspan x="64.96" y="0">ag</tspan></text><text class="cls-21" transform="translate(970.65 670.18)">Suspend <tspan class="cls-16" x="73.91" y="0">T</tspan><tspan x="81.71" y="0">ag</tspan></text><rect class="cls-17" x="480" y="707.41" width="468.5" height="533" rx="17.5"/><text class="cls-18" transform="translate(530.85 754.48) scale(1.02 1)">Bath<tspan class="cls-8" x="50.1" y="0">r</tspan><tspan x="59.54" y="0">oom A</tspan></text><line class="cls-19" x1="479.5" y1="765.41" x2="948.5" y2="765.41"/><line class="cls-20" x1="480.5" y1="1131.41" x2="948.5" y2="1133.41"/><text class="cls-21" transform="translate(487.65 1160.18)"><tspan class="cls-22">A</tspan><tspan x="10.73" y="0">dd </tspan><tspan class="cls-23" x="36.63" y="0">t</tspan><tspan x="42.35" y="0">o p</tspan><tspan class="cls-24" x="68.01" y="0">r</tspan><tspan x="75" y="0">in</tspan><tspan class="cls-25" x="90.7" y="0">t</tspan><tspan x="96.5" y="0">able sheet</tspan></text><rect x="498.5" y="773.41" width="420" height="351"/><text class="cls-26" transform="translate(553.06 941.98)">Qr code of <tspan class="cls-25" x="89.2" y="0">t</tspan><tspan x="95" y="0">ag goes he</tspan><tspan class="cls-27" x="183.92" y="0">r</tspan><tspan x="190.94" y="0">e</tspan></text><text class="cls-21" transform="translate(487.65 1188.18)">Dele<tspan class="cls-28" x="36.45" y="0">t</tspan><tspan x="42.2" y="0">e </tspan><tspan class="cls-16" x="57.17" y="0">T</tspan><tspan x="64.96" y="0">ag</tspan></text><text class="cls-21" transform="translate(487.65 1216.18)">Suspend <tspan class="cls-16" x="73.91" y="0">T</tspan><tspan x="81.71" y="0">ag</tspan></text><rect class="cls-17" x="963" y="707.41" width="468.5" height="533" rx="17.5"/><text class="cls-18" transform="translate(1013.85 754.48) scale(1.02 1)">Bath<tspan class="cls-8" x="50.1" y="0">r</tspan><tspan x="59.54" y="0">oom A</tspan></text><line class="cls-19" x1="962.5" y1="765.41" x2="1431.5" y2="765.41"/><line class="cls-20" x1="963.5" y1="1131.41" x2="1431.5" y2="1133.41"/><text class="cls-21" transform="translate(970.65 1160.18)"><tspan class="cls-22">A</tspan><tspan x="10.73" y="0">dd </tspan><tspan class="cls-23" x="36.63" y="0">t</tspan><tspan x="42.35" y="0">o p</tspan><tspan class="cls-24" x="68.01" y="0">r</tspan><tspan x="75" y="0">in</tspan><tspan class="cls-25" x="90.7" y="0">t</tspan><tspan x="96.5" y="0">able sheet</tspan></text><rect x="981.5" y="773.41" width="420" height="351"/><text class="cls-26" transform="translate(1036.06 941.98)">Qr code of <tspan class="cls-25" x="89.2" y="0">t</tspan><tspan x="95" y="0">ag goes he</tspan><tspan class="cls-27" x="183.92" y="0">r</tspan><tspan x="190.94" y="0">e</tspan></text><text class="cls-21" transform="translate(970.65 1188.18)">Dele<tspan class="cls-28" x="36.45" y="0">t</tspan><tspan x="42.2" y="0">e </tspan><tspan class="cls-16" x="57.17" y="0">T</tspan><tspan x="64.96" y="0">ag</tspan></text><text class="cls-21" transform="translate(970.65 1216.18)">Suspend <tspan class="cls-16" x="73.91" y="0">T</tspan><tspan x="81.71" y="0">ag</tspan></text></svg>