<svg id="Layer_1" data-name="Layer 1" xmlns="http://www.w3.org/2000/svg" viewBox="0 0 1920.5 1007.83"><defs><style>.cls-1,.cls-28{fill:#fff;}.cls-2,.cls-30{fill:none;stroke:#000;stroke-miterlimit:10;}.cls-3{font-size:24px;}.cls-23,.cls-3{font-family:Futura-Medium, Futura;}.cls-23,.cls-28,.cls-29,.cls-3{font-weight:500;}.cls-4{letter-spacing:-0.01em;}.cls-5{letter-spacing:0.01em;}.cls-6{letter-spacing:-0.02em;}.cls-7{letter-spacing:-0.01em;}.cls-8{letter-spacing:0.01em;}.cls-9{letter-spacing:0.01em;}.cls-10{letter-spacing:-0.02em;}.cls-11{letter-spacing:-0.02em;}.cls-12{letter-spacing:0.02em;}.cls-13{letter-spacing:-0.01em;}.cls-14{letter-spacing:0.01em;}.cls-15{letter-spacing:0.04em;}.cls-16{letter-spacing:0.02em;}.cls-17{letter-spacing:-0.02em;}.cls-18{letter-spacing:-0.02em;}.cls-19{letter-spacing:-0.01em;}.cls-20{letter-spacing:0.01em;}.cls-21{letter-spacing:-0.01em;}.cls-22{letter-spacing:0em;}.cls-23{font-size:70px;fill:#33a3ff;}.cls-24{fill:#afaeae;}.cls-25{fill:#64d3ff;}.cls-26{fill:#aaa;}.cls-27{fill:#41bcf2;}.cls-28,.cls-29{font-size:34.96px;font-family:Futura-CondensedMedium, Futura;}.cls-30{stroke-width:3px;}</style></defs><title>ws01</title><rect class="cls-1" x="1" y="3.91" width="1919" height="76"/><path d="M1919,1V76H1V1H1919m1-1H0V77H1920V0Z" transform="translate(0.5 3.41)"/><rect class="cls-2" x="115" y="171.91" width="1691" height="471"/><line class="cls-2" x1="88" y1="347.91" x2="31" y2="406.91"/><line class="cls-2" x1="88" y1="465.91" x2="31" y2="406.91"/><line class="cls-2" x1="1833" y1="348.91" x2="1890" y2="407.91"/><line class="cls-2" x1="1890" y1="407.91" x2="1833" y2="466.91"/><text class="cls-3" transform="translate(538 741.71) scale(0.62 1)">Lo<tspan class="cls-4" x="25.07" y="0">r</tspan><tspan x="33.88" y="0">em ipsum dolor sit am</tspan><tspan class="cls-5" x="271.78" y="0">e</tspan><tspan x="285.27" y="0">t, consec</tspan><tspan class="cls-5" x="380.12" y="0">te</tspan><tspan x="400.38" y="0">tuer adipiscing elit, sed diam nonum</tspan><tspan class="cls-6" x="792.27" y="0">m</tspan><tspan x="810.86" y="0">y nibh euismod tincidunt ut lao</tspan><tspan class="cls-7" x="1142.23" y="0">r</tspan><tspan x="1151.04" y="0">e</tspan><tspan class="cls-8" x="1164.32" y="0">e</tspan><tspan x="1177.81" y="0">t dolo</tspan><tspan class="cls-7" x="1241" y="0">r</tspan><tspan x="1249.81" y="0">e magna </tspan><tspan x="0" y="28.8">ali</tspan><tspan class="cls-9" x="26.34" y="28.8">q</tspan><tspan x="41" y="28.8">uam e</tspan><tspan class="cls-4" x="108.14" y="28.8">r</tspan><tspan x="116.95" y="28.8">at </tspan><tspan class="cls-10" x="145.31" y="28.8">v</tspan><tspan x="156.91" y="28.8">olutpat. Ut wisi enim ad minim </tspan><tspan class="cls-11" x="491.96" y="28.8">v</tspan><tspan x="503.61" y="28.8">eniam, </tspan><tspan class="cls-9" x="584.21" y="28.8">q</tspan><tspan x="598.87" y="28.8">uis nost</tspan><tspan class="cls-12" x="678.96" y="28.8">r</tspan><tspan x="688.3" y="28.8">ud </tspan><tspan class="cls-10" x="723.17" y="28.8">e</tspan><tspan class="cls-6" x="735.99" y="28.8">x</tspan><tspan x="749" y="28.8">e</tspan><tspan class="cls-13" x="762.28" y="28.8">r</tspan><tspan x="771.04" y="28.8">ci </tspan><tspan class="cls-14" x="795.86" y="28.8">t</tspan><tspan x="802.64" y="28.8">ation ullamco</tspan><tspan class="cls-12" x="948.83" y="28.8">r</tspan><tspan x="958.17" y="28.8">per suscipit lobo</tspan><tspan class="cls-15" x="1135.74" y="28.8">r</tspan><tspan x="1145.59" y="28.8">tis nisl ut ali</tspan><tspan class="cls-9" x="1270.92" y="28.8">q</tspan><tspan x="1285.58" y="28.8">uip </tspan><tspan class="cls-10" x="1326.43" y="28.8">e</tspan><tspan x="1339.25" y="28.8">x </tspan><tspan x="0" y="57.6">ea commodo conse</tspan><tspan class="cls-9" x="211.59" y="57.6">q</tspan><tspan x="226.25" y="57.6">uat. Duis au</tspan><tspan class="cls-5" x="356.19" y="57.6">t</tspan><tspan x="362.96" y="57.6">em </tspan><tspan class="cls-11" x="402.63" y="57.6">v</tspan><tspan x="414.28" y="57.6">el eum i</tspan><tspan class="cls-16" x="499.66" y="57.6">r</tspan><tspan x="509" y="57.6">iu</tspan><tspan class="cls-4" x="528.06" y="57.6">r</tspan><tspan x="536.87" y="57.6">e dolor in hend</tspan><tspan class="cls-7" x="703.68" y="57.6">r</tspan><tspan x="712.5" y="57.6">e</tspan><tspan class="cls-12" x="725.78" y="57.6">r</tspan><tspan x="735.12" y="57.6">it in vulpu</tspan><tspan class="cls-8" x="840.18" y="57.6">t</tspan><tspan x="846.96" y="57.6">a</tspan><tspan class="cls-14" x="861.35" y="57.6">t</tspan><tspan x="868.12" y="57.6">e </tspan><tspan class="cls-17" x="888.81" y="57.6">v</tspan><tspan x="900.46" y="57.6">elit esse molestie conse</tspan><tspan class="cls-9" x="1150.76" y="57.6">q</tspan><tspan x="1165.42" y="57.6">uat, </tspan><tspan class="cls-18" x="1214.26" y="57.6">v</tspan><tspan x="1225.91" y="57.6">el illum </tspan><tspan x="0" y="86.4">dolo</tspan><tspan class="cls-4" x="49.22" y="86.4">r</tspan><tspan x="58.03" y="86.4">e eu </tspan><tspan class="cls-16" x="112.48" y="86.4">f</tspan><tspan x="119.96" y="86.4">eugiat nulla </tspan><tspan class="cls-12" x="255.01" y="86.4">f</tspan><tspan x="262.5" y="86.4">acilisis at </tspan><tspan class="cls-18" x="367.47" y="86.4">v</tspan><tspan x="379.12" y="86.4">e</tspan><tspan class="cls-19" x="392.4" y="86.4">r</tspan><tspan x="401.16" y="86.4">o e</tspan><tspan class="cls-19" x="436.27" y="86.4">r</tspan><tspan x="445.04" y="86.4">os </tspan><tspan class="cls-5" x="476.61" y="86.4">e</tspan><tspan x="490.1" y="86.4">t accumsan </tspan><tspan class="cls-5" x="618.09" y="86.4">e</tspan><tspan x="631.58" y="86.4">t ius</tspan><tspan class="cls-20" x="674.34" y="86.4">t</tspan><tspan x="681.06" y="86.4">o odio dignissim </tspan><tspan class="cls-9" x="865.24" y="86.4">q</tspan><tspan x="879.9" y="86.4">ui blandit p</tspan><tspan class="cls-21" x="1003" y="86.4">r</tspan><tspan x="1011.81" y="86.4">aesent lu</tspan><tspan class="cls-14" x="1108.68" y="86.4">pt</tspan><tspan x="1130.06" y="86.4">atum zz</tspan><tspan class="cls-12" x="1216.56" y="86.4">r</tspan><tspan x="1225.91" y="86.4">il delenit </tspan><tspan x="0" y="115.2">augue duis dolo</tspan><tspan class="cls-4" x="175.4" y="115.2">r</tspan><tspan x="184.22" y="115.2">e </tspan><tspan class="cls-5" x="204.9" y="115.2">t</tspan><tspan x="211.67" y="115.2">e </tspan><tspan class="cls-12" x="232.36" y="115.2">f</tspan><tspan class="cls-22" x="239.85" y="115.2">eugait nulla </tspan><tspan class="cls-12" x="374.89" y="115.2">f</tspan><tspan x="382.38" y="115.2">acilisi.</tspan><tspan x="0" y="144">Lo</tspan><tspan class="cls-4" x="25.07" y="144">r</tspan><tspan x="33.88" y="144">em ipsum dolor sit am</tspan><tspan class="cls-5" x="271.78" y="144">e</tspan><tspan x="285.27" y="144">t, cons ec</tspan><tspan class="cls-5" x="387.53" y="144">te</tspan><tspan x="407.79" y="144">tuer adipiscing elit, sed diam nonum</tspan><tspan class="cls-6" x="799.67" y="144">m</tspan><tspan x="818.27" y="144">y nibh euismod tincidunt ut lao</tspan><tspan class="cls-7" x="1149.64" y="144">r</tspan><tspan x="1158.45" y="144">e</tspan><tspan class="cls-8" x="1171.73" y="144">e</tspan><tspan x="1185.22" y="144">t dolo</tspan><tspan class="cls-7" x="1248.4" y="144">r</tspan><tspan x="1257.22" y="144">e magna </tspan><tspan x="0" y="172.8">ali</tspan><tspan class="cls-9" x="26.34" y="172.8">q</tspan><tspan x="41" y="172.8">uam e</tspan><tspan class="cls-4" x="108.14" y="172.8">r</tspan><tspan x="116.95" y="172.8">at </tspan><tspan class="cls-10" x="145.31" y="172.8">v</tspan><tspan x="156.91" y="172.8">olutpat. Ut wisi enim ad minim </tspan><tspan class="cls-11" x="491.96" y="172.8">v</tspan><tspan x="503.61" y="172.8">eniam, </tspan><tspan class="cls-9" x="584.21" y="172.8">q</tspan><tspan x="598.87" y="172.8">uis nost</tspan><tspan class="cls-12" x="678.96" y="172.8">r</tspan><tspan x="688.3" y="172.8">ud </tspan><tspan class="cls-10" x="723.17" y="172.8">e</tspan><tspan class="cls-6" x="735.99" y="172.8">x</tspan><tspan x="749" y="172.8">e</tspan><tspan class="cls-13" x="762.28" y="172.8">r</tspan><tspan x="771.04" y="172.8">ci </tspan><tspan class="cls-14" x="795.86" y="172.8">t</tspan><tspan x="802.64" y="172.8">ation ullamco</tspan><tspan class="cls-12" x="948.83" y="172.8">r</tspan><tspan x="958.17" y="172.8">per suscipit lobo</tspan><tspan class="cls-15" x="1135.74" y="172.8">r</tspan><tspan x="1145.59" y="172.8">tis nisl ut ali</tspan><tspan class="cls-9" x="1270.92" y="172.8">q</tspan><tspan x="1285.58" y="172.8">uip </tspan><tspan class="cls-10" x="1326.43" y="172.8">e</tspan><tspan x="1339.25" y="172.8">x </tspan><tspan x="0" y="201.6">ea commodo conse</tspan><tspan class="cls-9" x="211.59" y="201.6">q</tspan><tspan x="226.25" y="201.6">uat.</tspan><tspan x="0" y="230.4">Lo</tspan><tspan class="cls-4" x="25.07" y="230.4">r</tspan><tspan x="33.88" y="230.4">em ipsum dolor sit am</tspan><tspan class="cls-5" x="271.78" y="230.4">e</tspan><tspan x="285.27" y="230.4">t, consec</tspan><tspan class="cls-5" x="380.12" y="230.4">te</tspan><tspan x="400.38" y="230.4">tuer adipiscing elit, sed diam nonum</tspan><tspan class="cls-6" x="792.27" y="230.4">m</tspan><tspan x="810.86" y="230.4">y nibh euismod tincidunt ut lao</tspan><tspan class="cls-7" x="1142.23" y="230.4">r</tspan><tspan x="1151.04" y="230.4">e</tspan><tspan class="cls-8" x="1164.32" y="230.4">e</tspan><tspan x="1177.81" y="230.4">t dolo</tspan><tspan class="cls-7" x="1241" y="230.4">r</tspan><tspan x="1249.81" y="230.4">e magna </tspan><tspan x="0" y="259.2">ali</tspan><tspan class="cls-9" x="26.34" y="259.2">q</tspan><tspan x="41" y="259.2">uam e</tspan><tspan class="cls-4" x="108.14" y="259.2">r</tspan><tspan x="116.95" y="259.2">at </tspan><tspan class="cls-10" x="145.31" y="259.2">v</tspan><tspan x="156.91" y="259.2">olutpat. Ut wisi enim ad minim </tspan><tspan class="cls-11" x="491.96" y="259.2">v</tspan><tspan x="503.61" y="259.2">eniam, </tspan><tspan class="cls-9" x="584.21" y="259.2">q</tspan><tspan x="598.87" y="259.2">uis nost</tspan><tspan class="cls-12" x="678.96" y="259.2">r</tspan><tspan x="688.3" y="259.2">ud </tspan><tspan class="cls-10" x="723.17" y="259.2">e</tspan><tspan class="cls-6" x="735.99" y="259.2">x</tspan><tspan x="749" y="259.2">e</tspan><tspan class="cls-13" x="762.28" y="259.2">r</tspan><tspan x="771.04" y="259.2">ci </tspan><tspan class="cls-14" x="795.86" y="259.2">t</tspan><tspan x="802.64" y="259.2">ation ullamco</tspan><tspan class="cls-12" x="948.83" y="259.2">r</tspan><tspan x="958.17" y="259.2">per suscipit lobo</tspan><tspan class="cls-15" x="1135.74" y="259.2">r</tspan><tspan x="1145.59" y="259.2">tis nisl ut ali</tspan><tspan class="cls-9" x="1270.92" y="259.2">q</tspan><tspan x="1285.58" y="259.2">uip </tspan><tspan class="cls-10" x="1326.43" y="259.2">e</tspan><tspan x="1339.25" y="259.2">x </tspan></text><text class="cls-23" transform="translate(0 61.64)">C<tspan class="cls-24" x="49.05" y="0">lean</tspan><tspan class="cls-25" x="185.56" y="0">C</tspan><tspan class="cls-26" x="234.61" y="0">onnect</tspan></text><rect class="cls-26" x="454.5" y="38.41" width="18.5" height="18"/><rect class="cls-26" x="491.5" y="38.41" width="18.5" height="18"/><rect class="cls-27" x="473" y="20.41" width="18.5" height="18"/><rect class="cls-27" x="510" y="20.41" width="18.5" height="18"/><rect class="cls-27" x="1739" y="6.41" width="165" height="70.5" rx="17.5"/><text class="cls-28" transform="translate(1789.85 52.48) scale(1.02 1)">Log in</text><text class="cls-29" transform="translate(1630.85 50.48) scale(1.02 1)">Sign up</text><line class="cls-30" x1="1630.5" y1="54.91" x2="1713.5" y2="55.91"/></svg>