<svg id="Layer_1" data-name="Layer 1" xmlns="http://www.w3.org/2000/svg" viewBox="0 0 1920.5 804.41"><defs><style>.cls-1,.cls-10,.cls-11,.cls-7{fill:#fff;}.cls-2{font-size:70px;fill:#33a3ff;font-family:Futura-Medium, Futura;}.cls-10,.cls-12,.cls-2,.cls-9{font-weight:500;}.cls-3{fill:#afaeae;}.cls-4{fill:#64d3ff;}.cls-5{fill:#aaa;}.cls-6{fill:#41bcf2;}.cls-11,.cls-7,.cls-8{stroke:#000;stroke-miterlimit:10;}.cls-8{fill:none;stroke-width:4px;}.cls-9{font-size:44px;}.cls-10,.cls-12,.cls-9{font-family:Futura-CondensedMedium, Futura;}.cls-10,.cls-12{font-size:34.96px;}.cls-11{stroke-width:7px;}.cls-12{fill:#999;}.cls-13{letter-spacing:0em;}.cls-14{letter-spacing:0em;}.cls-15{letter-spacing:-0.01em;}.cls-16{letter-spacing:0.01em;}</style></defs><title>ws06</title><rect class="cls-1" x="1" y="3.91" width="1919" height="76"/><path d="M1919,1V76H1V1H1919m1-1H0V77H1920V0Z" transform="translate(0.5 3.41)"/><text class="cls-2" transform="translate(0 61.64)">C<tspan class="cls-3" x="49.05" y="0">lean</tspan><tspan class="cls-4" x="185.56" y="0">C</tspan><tspan class="cls-5" x="234.61" y="0">onnect</tspan></text><rect class="cls-5" x="454.5" y="38.41" width="18.5" height="18"/><rect class="cls-5" x="491.5" y="38.41" width="18.5" height="18"/><rect class="cls-6" x="473" y="20.41" width="18.5" height="18"/><rect class="cls-6" x="510" y="20.41" width="18.5" height="18"/><rect class="cls-7" x="469" y="337.91" width="986" height="466"/><line class="cls-8" x1="468.99" y1="335.41" x2="959.01" y2="335.41"/><text class="cls-9" transform="translate(469.47 328.05)">Login</text><rect class="cls-6" x="538" y="720.41" width="256.5" height="70.5" rx="17.5"/><text class="cls-10" transform="translate(637.85 766.48) scale(1.02 1)">Login</text><rect class="cls-11" x="542" y="468.41" width="833.5" height="70.5" rx="17.5"/><text class="cls-12" transform="translate(565.85 517.48) scale(1.02 1)">Email <tspan class="cls-13" x="69" y="0">A</tspan><tspan x="83.42" y="0">dd</tspan><tspan class="cls-14" x="111.01" y="0">r</tspan><tspan x="120.45" y="0">ess</tspan></text><rect class="cls-11" x="542" y="551.41" width="833.5" height="70.5" rx="17.5"/><text class="cls-12" transform="translate(565.85 600.48) scale(1.02 1)"><tspan class="cls-15">P</tspan><tspan x="13.62" y="0">ass</tspan><tspan class="cls-15" x="47.97" y="0">w</tspan><tspan x="65.46" y="0">o</tspan><tspan class="cls-16" x="78.93" y="0">r</tspan><tspan x="88.47" y="0">d</tspan></text></svg>